<svg width="24" height="24" viewBox="0 0 24 24" fill="none" xmlns="http://www.w3.org/2000/svg">
<path fill-rule="evenodd" clip-rule="evenodd" d="M12 21.7777C12 21.7777 20 16.4444 20 10.2222C20 8.10044 19.1571 6.06561 17.6569 4.56531C16.1566 3.06502 14.1217 2.22217 12 2.22217C9.87827 2.22217 7.84344 3.06502 6.34315 4.56531C4.84285 6.06561 4 8.10044 4 10.2222C4 16.4444 12 21.7777 12 21.7777ZM14.6676 10.2224C14.6676 11.6951 13.4736 12.889 12.0009 12.889C10.5281 12.889 9.33421 11.6951 9.33421 10.2224C9.33421 8.7496 10.5281 7.55569 12.0009 7.55569C13.4736 7.55569 14.6676 8.7496 14.6676 10.2224Z" fill="white"/>
</svg>
