<svg width="11" height="14" viewBox="0 0 11 14" fill="none" xmlns="http://www.w3.org/2000/svg">
<path fill-rule="evenodd" clip-rule="evenodd" d="M5.5 13.4444C5.5 13.4444 11 9.77778 11 5.5C11 4.04131 10.4205 2.64236 9.38909 1.61091C8.35764 0.579463 6.95869 0 5.5 0C4.04131 0 2.64236 0.579463 1.61091 1.61091C0.579463 2.64236 0 4.04131 0 5.5C0 9.77778 5.5 13.4444 5.5 13.4444ZM7.33388 5.49991C7.33388 6.51243 6.51307 7.33324 5.50055 7.33324C4.48803 7.33324 3.66721 6.51243 3.66721 5.49991C3.66721 4.48739 4.48803 3.66658 5.50055 3.66658C6.51307 3.66658 7.33388 4.48739 7.33388 5.49991Z" fill="#FF1D6C"/>
</svg>
