<svg width="24" height="24" viewBox="0 0 24 24" fill="none" xmlns="http://www.w3.org/2000/svg">
<path fill-rule="evenodd" clip-rule="evenodd" d="M17.9218 4.26758C19.8943 4.26758 21.4991 5.85651 21.4991 7.80865L21.5 10.101C21.5 10.276 21.4302 10.4457 21.3056 10.5694C21.1819 10.694 21.0131 10.7638 20.8372 10.7638C20.1417 10.7638 19.5761 11.3188 19.5761 12.001C19.5761 12.6833 20.1417 13.2382 20.8372 13.2382C21.2031 13.2382 21.5 13.5352 21.5 13.901V16.1916C21.5 18.1438 19.8952 19.7327 17.9227 19.7327H6.0773C4.10484 19.7327 2.5 18.1438 2.5 16.1916V13.901C2.5 13.5352 2.79693 13.2382 3.16279 13.2382C3.85828 13.2382 4.42386 12.6833 4.42386 12.001C4.42386 11.3382 3.88126 10.838 3.16279 10.838C2.98693 10.838 2.81814 10.7682 2.69442 10.6436C2.56981 10.5199 2.5 10.3502 2.5 10.1753L2.50088 7.80865C2.50088 5.85651 4.10572 4.26758 6.07819 4.26758H17.9218ZM17.9218 5.59316H14.2968L14.2973 7.29096C14.2973 7.65682 14.0004 7.95375 13.6345 7.95375C13.2687 7.95375 12.9717 7.65682 12.9717 7.29096L12.9712 5.59316H6.07819C4.83656 5.59316 3.82647 6.58735 3.82647 7.80865L3.82558 9.592C4.94526 9.86683 5.74944 10.8266 5.74944 12.001C5.74944 13.187 4.93112 14.1873 3.82558 14.4781V16.1916C3.82558 17.4129 4.83567 18.4071 6.0773 18.4071H12.9712L12.9717 17.0917C12.9717 16.725 13.2687 16.4289 13.6345 16.4289C14.0004 16.4289 14.2973 16.725 14.2973 17.0917L14.2968 18.4071H17.9227C19.1643 18.4071 20.1744 17.4129 20.1744 16.1916V14.4781C19.0689 14.1873 18.2506 13.187 18.2506 12.001C18.2506 10.8142 19.068 9.81469 20.1744 9.52395L20.1735 7.80865C20.1735 6.58735 19.1634 5.59316 17.9218 5.59316ZM13.6345 9.13202C14.0004 9.13202 14.2973 9.42895 14.2973 9.79481V14.0552C14.2973 14.4211 14.0004 14.718 13.6345 14.718C13.2687 14.718 12.9717 14.4211 12.9717 14.0552V9.79481C12.9717 9.42895 13.2687 9.13202 13.6345 9.13202Z" fill="#FF1D6C"/>
</svg>
